# xmcd
#
# Track frame offsets:
#	150
#	14818
#	31034
#	43947
#	60094
#	78097
#	95454
#	109719
#	121368
#	135720
#	157767
#	170284
#	185039
#	201598
#	215768
#	228448
#	243486
#	262802
#
# Disc length: 3714 seconds
#
# Revision: 1
# Processed by: cddbd v1.5.2PL0 Copyright (c) Steve Scherf et al.
# Submitted via: audiograbber 1.83.01
#
DISCID=f00e8012
DTITLE=Various Artist - CDX 429
DYEAR=2007
DGENRE=Country
TTITLE0=Trace Adkins - I Got My Game On
TTITLE1=Kevin Fowler - Long Line Of Losers
TTITLE2=Cowboy Crush - Miis. Difficult
TTITLE3=Heartland - Once A Woman Gets A Hold Of Your Heart
TTITLE4=Chuck Wicks - Stealing Cinderella
TTITLE5=Lance Miller - The Beach
TTITLE6=Gene Watson - I Buried Our Love
TTITLE7=Dixie Brown - Do Wrong Look
TTITLE8=Stephanie Beck Williams - D.R.U.N.K.
TTITLE9=E.J. Dease - I Know
TTITLE10=Floyd Flowers - Overtime
TTITLE11=Daris Kentson - The Letters
TTITLE12=Jeremy Boz - The Pearl
TTITLE13=Ronnie Bear - This Cowboy Is An Indian
TTITLE14=Barry Brown - Three Hundred Horses
TTITLE15=Deon Taylor - Tropical Vacation
TTITLE16=Cody McCarver - Through God's Eyes
TTITLE17=Kassie DePaiva - Too Little
EXTD=
EXTT0=
EXTT1=
EXTT2=
EXTT3=
EXTT4=
EXTT5=
EXTT6=
EXTT7=
EXTT8=
EXTT9=
EXTT10=
EXTT11=
EXTT12=
EXTT13=
EXTT14=
EXTT15=
EXTT16=
EXTT17=
PLAYORDER=
